<?xml version="1.0" encoding="UTF-8" standalone="no"?>
<!-- Created with Inkscape (http://www.inkscape.org/) -->

<svg
   xmlns:dc="http://purl.org/dc/elements/1.1/"
   xmlns:cc="http://creativecommons.org/ns#"
   xmlns:rdf="http://www.w3.org/1999/02/22-rdf-syntax-ns#"
   xmlns:svg="http://www.w3.org/2000/svg"
   xmlns="http://www.w3.org/2000/svg"
   xmlns:sodipodi="http://sodipodi.sourceforge.net/DTD/sodipodi-0.dtd"
   xmlns:inkscape="http://www.inkscape.org/namespaces/inkscape"
   width="21.145874mm"
   height="53.909241mm"
   viewBox="0 0 74.926325 191.01699"
   id="svg10769"
   version="1.1"
   inkscape:version="0.91 r13725"
   sodipodi:docname="Canadian RCAF OF-6.svg">
  <defs
     id="defs10771">
    <clipPath
       id="clipPath67779"
       clipPathUnits="userSpaceOnUse">
      <path
         inkscape:connector-curvature="0"
         id="path67781"
         d="m 11.9906,11.9906 571.2944,0 0,817.9086 -571.2944,0 0,-817.9086 z" />
    </clipPath>
    <clipPath
       id="clipPath67779-9"
       clipPathUnits="userSpaceOnUse">
      <path
         inkscape:connector-curvature="0"
         id="path67781-1"
         d="m 11.9906,11.9906 571.2944,0 0,817.9086 -571.2944,0 0,-817.9086 z" />
    </clipPath>
    <clipPath
       id="clipPath67779-6"
       clipPathUnits="userSpaceOnUse">
      <path
         inkscape:connector-curvature="0"
         id="path67781-8"
         d="m 11.9906,11.9906 571.2944,0 0,817.9086 -571.2944,0 0,-817.9086 z" />
    </clipPath>
    <clipPath
       id="clipPath67779-0"
       clipPathUnits="userSpaceOnUse">
      <path
         inkscape:connector-curvature="0"
         id="path67781-2"
         d="m 11.9906,11.9906 571.2944,0 0,817.9086 -571.2944,0 0,-817.9086 z" />
    </clipPath>
    <clipPath
       id="clipPath67779-1"
       clipPathUnits="userSpaceOnUse">
      <path
         inkscape:connector-curvature="0"
         id="path67781-3"
         d="m 11.9906,11.9906 571.2944,0 0,817.9086 -571.2944,0 0,-817.9086 z" />
    </clipPath>
    <clipPath
       id="clipPath67779-5"
       clipPathUnits="userSpaceOnUse">
      <path
         inkscape:connector-curvature="0"
         id="path67781-21"
         d="m 11.9906,11.9906 571.2944,0 0,817.9086 -571.2944,0 0,-817.9086 z" />
    </clipPath>
    <clipPath
       id="clipPath67779-97"
       clipPathUnits="userSpaceOnUse">
      <path
         inkscape:connector-curvature="0"
         id="path67781-4"
         d="m 11.9906,11.9906 571.2944,0 0,817.9086 -571.2944,0 0,-817.9086 z" />
    </clipPath>
    <clipPath
       id="clipPath67779-8"
       clipPathUnits="userSpaceOnUse">
      <path
         inkscape:connector-curvature="0"
         id="path67781-9"
         d="m 11.9906,11.9906 571.2944,0 0,817.9086 -571.2944,0 0,-817.9086 z" />
    </clipPath>
    <clipPath
       id="clipPath67779-82"
       clipPathUnits="userSpaceOnUse">
      <path
         inkscape:connector-curvature="0"
         id="path67781-0"
         d="m 11.9906,11.9906 571.2944,0 0,817.9086 -571.2944,0 0,-817.9086 z" />
    </clipPath>
    <clipPath
       id="clipPath67779-66"
       clipPathUnits="userSpaceOnUse">
      <path
         inkscape:connector-curvature="0"
         id="path67781-13"
         d="m 11.9906,11.9906 571.2944,0 0,817.9086 -571.2944,0 0,-817.9086 z" />
    </clipPath>
    <clipPath
       id="clipPath67779-58"
       clipPathUnits="userSpaceOnUse">
      <path
         inkscape:connector-curvature="0"
         id="path67781-37"
         d="m 11.9906,11.9906 571.2944,0 0,817.9086 -571.2944,0 0,-817.9086 z" />
    </clipPath>
    <clipPath
       id="clipPath67779-827"
       clipPathUnits="userSpaceOnUse">
      <path
         inkscape:connector-curvature="0"
         id="path67781-27"
         d="m 11.9906,11.9906 571.2944,0 0,817.9086 -571.2944,0 0,-817.9086 z" />
    </clipPath>
    <clipPath
       id="clipPath67779-3"
       clipPathUnits="userSpaceOnUse">
      <path
         inkscape:connector-curvature="0"
         id="path67781-36"
         d="m 11.9906,11.9906 571.2944,0 0,817.9086 -571.2944,0 0,-817.9086 z" />
    </clipPath>
  </defs>
  <sodipodi:namedview
     id="base"
     pagecolor="#ffffff"
     bordercolor="#666666"
     borderopacity="1.0"
     inkscape:pageopacity="0.0"
     inkscape:pageshadow="2"
     inkscape:zoom="2.3767519"
     inkscape:cx="37.463162"
     inkscape:cy="95.508496"
     inkscape:document-units="px"
     inkscape:current-layer="layer1"
     showgrid="false"
     fit-margin-top="0"
     fit-margin-left="0"
     fit-margin-right="0"
     fit-margin-bottom="0"
     inkscape:window-width="1366"
     inkscape:window-height="656"
     inkscape:window-x="0"
     inkscape:window-y="1"
     inkscape:window-maximized="1"
     showguides="false" />
  <metadata
     id="metadata10774">
    <rdf:RDF>
      <cc:Work
         rdf:about="">
        <dc:format>image/svg+xml</dc:format>
        <dc:type
           rdf:resource="http://purl.org/dc/dcmitype/StillImage" />
        <dc:title />
      </cc:Work>
    </rdf:RDF>
  </metadata>
  <g
     inkscape:label="Layer 1"
     inkscape:groupmode="layer"
     id="layer1"
     transform="translate(156.74888,-436.8537)">
    <g
       transform="translate(-449.55793,-1.3967392e-5)"
       id="g55132">
      <g
         transform="translate(0,2.4974559e-6)"
         id="g26501" />
    </g>
    <g
       transform="translate(-271.13895,220.47127)"
       id="g10656">
      <path
         style="fill:#153c6a;fill-opacity:1;fill-rule:evenodd;stroke:#002c50;stroke-width:1;stroke-linecap:butt;stroke-linejoin:miter;stroke-miterlimit:4;stroke-dasharray:none;stroke-opacity:1"
         d="m 114.85323,216.72939 0,190.32306 37.00001,0 36.99999,0 0,-190.32306 z"
         id="path22260"
         inkscape:connector-curvature="0"
         sodipodi:nodetypes="cccccc" />
      <g
         id="g21637"
         transform="matrix(0.99986665,0,0,1.6929599,375.04031,-838.811)">
        <g
           transform="matrix(1.1138022,0,0,0.61441895,135.99221,303.93826)"
           id="g21639" />
        <g
           transform="translate(1.506551e-6,0)"
           id="g21645">
          <path
             inkscape:connector-curvature="0"
             id="path21647"
             d="m -260.71685,720.76872 0,4.20531 75,0 0,-4.20531 z"
             style="fill:#000000;fill-opacity:1;stroke:none;stroke-width:0.1;stroke-linejoin:miter;stroke-miterlimit:4;stroke-dasharray:none;stroke-opacity:1" />
          <path
             style="fill:#f1f4f4;fill-opacity:1;stroke:none;stroke-width:0.1;stroke-linejoin:miter;stroke-miterlimit:4;stroke-dasharray:none;stroke-opacity:1"
             d="m -260.71685,716.56341 0,4.20531 75,0 0,-4.20531 z"
             id="path21649"
             inkscape:connector-curvature="0" />
          <path
             inkscape:connector-curvature="0"
             id="path21651"
             d="m -260.71685,712.3581 0,4.20531 75,0 0,-4.20531 z"
             style="fill:#000000;fill-opacity:1;stroke:none;stroke-width:0.1;stroke-linejoin:miter;stroke-miterlimit:4;stroke-dasharray:none;stroke-opacity:1" />
        </g>
        <g
           transform="translate(1.506551e-6,-21.02655)"
           id="g21653">
          <path
             inkscape:connector-curvature="0"
             id="path21655"
             d="m -260.71685,724.97403 0,4.20531 75,0 0,-4.20531 z"
             style="fill:#000000;fill-opacity:1;stroke:none;stroke-width:0.1;stroke-linejoin:miter;stroke-miterlimit:4;stroke-dasharray:none;stroke-opacity:1" />
          <path
             style="fill:#f1f4f4;fill-opacity:1;stroke:none;stroke-width:0.1;stroke-linejoin:miter;stroke-miterlimit:4;stroke-dasharray:none;stroke-opacity:1"
             d="m -260.71685,720.76872 0,4.20531 75,0 0,-4.20531 z"
             id="path21657"
             inkscape:connector-curvature="0" />
          <path
             inkscape:connector-curvature="0"
             id="path21659"
             d="m -260.71685,716.56341 0,4.20531 75,0 0,-4.20531 z"
             style="fill:#000000;fill-opacity:1;stroke:none;stroke-width:0.1;stroke-linejoin:miter;stroke-miterlimit:4;stroke-dasharray:none;stroke-opacity:1" />
          <path
             inkscape:connector-curvature="0"
             id="path21661"
             d="m -260.71685,708.15279 0,4.20531 75,0 0,-4.20531 z"
             style="fill:#000000;fill-opacity:1;stroke:none;stroke-width:0.1;stroke-linejoin:miter;stroke-miterlimit:4;stroke-dasharray:none;stroke-opacity:1" />
        </g>
        <g
           id="g21663"
           transform="translate(1.506551e-6,-42.0531)">
          <path
             style="fill:#f1f4f4;fill-opacity:1;stroke:none;stroke-width:0.1;stroke-linejoin:miter;stroke-miterlimit:4;stroke-dasharray:none;stroke-opacity:1"
             d="m -260.71685,724.97403 0,4.20531 75,0 0,-4.20531 z"
             id="path21665"
             inkscape:connector-curvature="0" />
          <path
             inkscape:connector-curvature="0"
             id="path21667"
             d="m -260.71685,720.76872 0,4.20531 75,0 0,-4.20531 z"
             style="fill:#000000;fill-opacity:1;stroke:none;stroke-width:0.1;stroke-linejoin:miter;stroke-miterlimit:4;stroke-dasharray:none;stroke-opacity:1" />
          <path
             inkscape:connector-curvature="0"
             id="path21669"
             d="m -260.71685,712.3581 0,4.20531 75,0 0,-4.20531 z"
             style="fill:#000000;fill-opacity:1;stroke:none;stroke-width:0.1;stroke-linejoin:miter;stroke-miterlimit:4;stroke-dasharray:none;stroke-opacity:1" />
          <path
             style="fill:#f1f4f4;fill-opacity:1;stroke:none;stroke-width:0.1;stroke-linejoin:miter;stroke-miterlimit:4;stroke-dasharray:none;stroke-opacity:1"
             d="m -260.71685,708.15279 0,4.20531 75,0 0,-4.20531 z"
             id="path21671"
             inkscape:connector-curvature="0" />
        </g>
        <g
           transform="translate(1.506551e-6,-63.07965)"
           id="g21673">
          <path
             inkscape:connector-curvature="0"
             id="path21675"
             d="m -260.71685,724.97403 0,4.20531 75,0 0,-4.20531 z"
             style="fill:#000000;fill-opacity:1;stroke:none;stroke-width:0.1;stroke-linejoin:miter;stroke-miterlimit:4;stroke-dasharray:none;stroke-opacity:1" />
        </g>
      </g>
    </g>
  </g>
</svg>
