<?xml version="1.0" encoding="UTF-8" standalone="no"?>
<!-- Created with Inkscape (http://www.inkscape.org/) -->

<svg
   xmlns:dc="http://purl.org/dc/elements/1.1/"
   xmlns:cc="http://creativecommons.org/ns#"
   xmlns:rdf="http://www.w3.org/1999/02/22-rdf-syntax-ns#"
   xmlns:svg="http://www.w3.org/2000/svg"
   xmlns="http://www.w3.org/2000/svg"
   xmlns:sodipodi="http://sodipodi.sourceforge.net/DTD/sodipodi-0.dtd"
   xmlns:inkscape="http://www.inkscape.org/namespaces/inkscape"
   width="21.166666mm"
   height="53.995621mm"
   viewBox="0 0 74.999998 191.32306"
   id="svg10749"
   version="1.1"
   inkscape:version="0.91 r13725"
   sodipodi:docname="3.svg">
  <defs
     id="defs10751" />
  <sodipodi:namedview
     id="base"
     pagecolor="#ffffff"
     bordercolor="#666666"
     borderopacity="1.0"
     inkscape:pageopacity="0.0"
     inkscape:pageshadow="2"
     inkscape:zoom="2.3729496"
     inkscape:cx="37.5"
     inkscape:cy="95.661534"
     inkscape:document-units="px"
     inkscape:current-layer="layer1"
     showgrid="false"
     fit-margin-top="0"
     fit-margin-left="0"
     fit-margin-right="0"
     fit-margin-bottom="0"
     inkscape:window-width="1366"
     inkscape:window-height="656"
     inkscape:window-x="0"
     inkscape:window-y="1"
     inkscape:window-maximized="1" />
  <metadata
     id="metadata10754">
    <rdf:RDF>
      <cc:Work
         rdf:about="">
        <dc:format>image/svg+xml</dc:format>
        <dc:type
           rdf:resource="http://purl.org/dc/dcmitype/StillImage" />
        <dc:title></dc:title>
      </cc:Work>
    </rdf:RDF>
  </metadata>
  <g
     inkscape:label="Layer 1"
     inkscape:groupmode="layer"
     id="layer1"
     transform="translate(156.78571,-436.70067)">
    <g
       id="g8534"
       transform="translate(-720.22757,220.32475)">
      <path
         sodipodi:nodetypes="ccccc"
         inkscape:connector-curvature="0"
         id="path17293"
         d="m 565.20099,228.87592 -1.21862,166.32306 73.91897,0 -1.21862,-166.32306 z"
         style="fill:#153c6a;fill-opacity:1;fill-rule:evenodd;stroke:#002c50;stroke-width:1;stroke-linecap:butt;stroke-linejoin:miter;stroke-miterlimit:4;stroke-dasharray:none;stroke-opacity:1" />
      <path
         inkscape:connector-curvature="0"
         id="ellipse8371"
         d="m 600.94088,305.9768 a 5.0338739,5.0338745 0 0 0 -4.76953,3.44141 12.684991,3.9337251 0 0 0 -11.58398,-2.3418 12.684991,3.9337251 0 0 0 -12.6836,3.9336 12.684991,3.9337251 0 0 0 12.6836,3.93359 12.684991,3.9337251 0 0 0 11.58203,-2.34961 5.0338739,5.0338745 0 0 0 4.77148,3.45117 5.0338739,5.0338745 0 0 0 4.77344,-3.44336 12.684991,3.9337251 0 0 0 11.58008,2.3418 12.684991,3.9337251 0 0 0 12.68555,-3.93359 12.684991,3.9337251 0 0 0 -12.68555,-3.9336 12.684991,3.9337251 0 0 0 -11.58008,2.34961 5.0338739,5.0338745 0 0 0 -4.77344,-3.44922 z m 0.002,1.81446 c 1.77253,0 3.21875,1.44817 3.21875,3.2207 0,1.77252 -1.44622,3.21875 -3.21875,3.21875 -1.77253,0 -3.22071,-1.44623 -3.22071,-3.21875 0,-1.77253 1.44818,-3.2207 3.22071,-3.2207 z m 0,1 c -1.23209,0 -2.22071,0.98861 -2.22071,2.2207 0,1.23208 0.98862,2.21875 2.22071,2.21875 1.23209,0 2.21875,-0.98667 2.21875,-2.21875 0,-1.23209 -0.98666,-2.2207 -2.21875,-2.2207 z"
         style="fill:#f1f4f4;fill-opacity:1;stroke:none;stroke-width:0.13254985;stroke-linejoin:miter;stroke-miterlimit:4;stroke-dasharray:none;stroke-dashoffset:0;stroke-opacity:1" />
    </g>
  </g>
</svg>
