<?xml version="1.0" encoding="UTF-8" standalone="no"?>
<!-- Created with Inkscape (http://www.inkscape.org/) -->

<svg
   xmlns:dc="http://purl.org/dc/elements/1.1/"
   xmlns:cc="http://creativecommons.org/ns#"
   xmlns:rdf="http://www.w3.org/1999/02/22-rdf-syntax-ns#"
   xmlns:svg="http://www.w3.org/2000/svg"
   xmlns="http://www.w3.org/2000/svg"
   xmlns:sodipodi="http://sodipodi.sourceforge.net/DTD/sodipodi-0.dtd"
   xmlns:inkscape="http://www.inkscape.org/namespaces/inkscape"
   width="21.166666mm"
   height="53.995621mm"
   viewBox="0 0 74.999998 191.32306"
   id="svg9565"
   version="1.1"
   inkscape:version="0.91 r13725"
   sodipodi:docname="Canadian RCN OR-5.svg">
  <defs
     id="defs9567">
    <clipPath
       id="clipPath9275"
       clipPathUnits="userSpaceOnUse">
      <path
         inkscape:connector-curvature="0"
         id="path9277"
         d="m 11.9906,11.9906 571.2944,0 0,817.9086 -571.2944,0 0,-817.9086 z" />
    </clipPath>
    <clipPath
       id="clipPath9275-1"
       clipPathUnits="userSpaceOnUse">
      <path
         inkscape:connector-curvature="0"
         id="path9277-1"
         d="m 11.9906,11.9906 571.2944,0 0,817.9086 -571.2944,0 0,-817.9086 z" />
    </clipPath>
    <clipPath
       id="clipPath9275-9"
       clipPathUnits="userSpaceOnUse">
      <path
         inkscape:connector-curvature="0"
         id="path9277-4"
         d="m 11.9906,11.9906 571.2944,0 0,817.9086 -571.2944,0 0,-817.9086 z" />
    </clipPath>
    <clipPath
       id="clipPath9275-6"
       clipPathUnits="userSpaceOnUse">
      <path
         inkscape:connector-curvature="0"
         id="path9277-0"
         d="m 11.9906,11.9906 571.2944,0 0,817.9086 -571.2944,0 0,-817.9086 z" />
    </clipPath>
  </defs>
  <sodipodi:namedview
     id="base"
     pagecolor="#ffffff"
     bordercolor="#666666"
     borderopacity="1.0"
     inkscape:pageopacity="0.0"
     inkscape:pageshadow="2"
     inkscape:zoom="2.3729496"
     inkscape:cx="37.5"
     inkscape:cy="95.661534"
     inkscape:document-units="px"
     inkscape:current-layer="layer1"
     showgrid="false"
     fit-margin-top="0"
     fit-margin-left="0"
     fit-margin-right="0"
     fit-margin-bottom="0"
     inkscape:window-width="1366"
     inkscape:window-height="656"
     inkscape:window-x="0"
     inkscape:window-y="1"
     inkscape:window-maximized="1" />
  <metadata
     id="metadata9570">
    <rdf:RDF>
      <cc:Work
         rdf:about="">
        <dc:format>image/svg+xml</dc:format>
        <dc:type
           rdf:resource="http://purl.org/dc/dcmitype/StillImage" />
        <dc:title></dc:title>
      </cc:Work>
    </rdf:RDF>
  </metadata>
  <g
     inkscape:label="Layer 1"
     inkscape:groupmode="layer"
     id="layer1"
     transform="translate(156.78571,-436.70067)">
    <g
       transform="translate(-224.77897,-9.9819317e-8)"
       id="g55108">
      <g
         transform="translate(0,3.6812859e-6)"
         id="g48607">
        <path
           style="fill:#000000;fill-opacity:1;fill-rule:evenodd;stroke:#1a1a1a;stroke-width:1;stroke-linecap:butt;stroke-linejoin:miter;stroke-miterlimit:4;stroke-dasharray:none;stroke-opacity:1"
           d="m 69.752392,449.20067 -1.21862,166.32306 73.918968,0 -1.21862,-166.32306 z"
           id="path17301"
           inkscape:connector-curvature="0"
           sodipodi:nodetypes="ccccc" />
        <g
           transform="translate(143.0034,-194.60826)"
           id="g32694"
           style="stroke:none">
          <path
             inkscape:connector-curvature="0"
             style="fill:#fddd10;fill-opacity:1;fill-rule:evenodd;stroke:none;stroke-width:0.40000001;stroke-linecap:butt;stroke-linejoin:miter;stroke-miterlimit:4;stroke-dasharray:none;stroke-opacity:1"
             d="m -43.768539,722.15206 8e-6,3.1e-4 0.26721,-0.01 5.294033,-0.4696 0,4.77767 c 0,0.38152 0.307466,0.68921 0.697136,0.68921 0.389678,0 0.697143,-0.30769 0.697143,-0.68921 l 0,-4.77767 5.294025,0.4696 0.267218,0.01 c 0.383056,0.0326 -0.896071,-1.73407 -1.711716,-3.18806 l 6.780946,-4.19606 c 0.423668,-0.26388 0.536647,-0.38965 0.566173,-0.50005 0.05483,-0.20521 -0.09212,-0.35064 -0.507974,-0.38363 -0.54292,-0.0429 -1.192776,-0.0764 -1.342684,-0.28705 -0.241151,-0.33896 0.252498,-2.07924 0.571468,-3.03725 0.230524,-0.69242 0.220789,-0.86767 0.06748,-1.0186 -0.153346,-0.15092 -0.329913,-0.15813 -1.018595,0.0833 -0.95284,0.3341 -2.683938,0.85484 -3.026675,0.6191 -0.213062,-0.14652 -0.256614,-0.79523 -0.308224,-1.33741 -0.02963,-0.31144 -0.120248,-0.47102 -0.250017,-0.50665 -0.0433,-0.0118 -0.09047,-0.009 -0.141541,0.006 -0.109929,0.0313 -0.233646,0.14501 -0.490773,0.5728 l -2.680091,4.45799 1.742191,-8.0257 c 0.11561,-0.5329 0.118502,-0.71424 0.05689,-0.82282 -0.114559,-0.20182 -0.340161,-0.20307 -0.689202,0.09 -0.455716,0.38257 -0.986469,0.85478 -1.264645,0.80561 -0.447538,-0.0791 -1.396555,-1.81275 -1.882413,-2.80311 -0.35116,-0.71581 -0.493823,-0.84529 -0.728883,-0.84531 l -1.18e-4,0 c -0.235068,-10e-6 -0.377724,0.1295 -0.728882,0.84531 -0.485859,0.99036 -1.434868,2.724 -1.882414,2.80311 -0.278168,0.0491 -0.808929,-0.42304 -1.264644,-0.80561 -0.349042,-0.29303 -0.575956,-0.29178 -0.690523,-0.09 -0.06162,0.10858 -0.05744,0.28992 0.05815,0.82282 l 1.742191,8.0257 -2.680084,-4.45799 c -0.257134,-0.42778 -0.380843,-0.54151 -0.49078,-0.57279 -0.05104,-0.0145 -0.09829,-0.0171 -0.141549,-0.006 -0.129769,0.0357 -0.220348,0.19521 -0.250017,0.50665 -0.05159,0.54218 -0.09516,1.19089 -0.308224,1.33741 -0.342729,0.23574 -2.073827,-0.285 -3.026668,-0.6191 -0.688689,-0.24148 -0.865241,-0.23426 -1.018594,-0.0833 -0.153322,0.15093 -0.163057,0.32617 0.06748,1.01859 0.318978,0.95802 0.812618,2.6983 0.571467,3.03725 -0.149901,0.21068 -0.799772,0.24405 -1.342692,0.28706 -0.415847,0.033 -0.562832,0.17842 -0.507974,0.38363 0.02955,0.1104 0.142513,0.23617 0.566182,0.50005 l 6.760754,4.19587 c -0.795478,1.45385 -2.074605,3.22051 -1.691549,3.18793 z"
             id="path32696"
             sodipodi:nodetypes="ccccsssccccccccccsccccccccscsccscsccccccccscccccccc" />
          <path
             sodipodi:nodetypes="ccccccc"
             inkscape:connector-curvature="0"
             id="path32698"
             d="m -8.4059162,711.45418 0,8 c -10.5529328,5.5278 -20.2926068,12.35682 -29.1042308,20.57775 -8.811624,-8.22093 -18.551298,-15.04995 -29.10423,-20.57775 l 0,-8 c 10.552932,5.5278 20.292606,12.35682 29.10423,20.57775 8.811624,-8.22093 18.551298,-15.04995 29.1042308,-20.57775 z"
             style="fill:#fddd10;fill-opacity:1;fill-rule:evenodd;stroke:none;stroke-width:0.40000001;stroke-linecap:butt;stroke-linejoin:miter;stroke-miterlimit:4;stroke-dasharray:none;stroke-opacity:1" />
          <path
             style="fill:#fddd10;fill-opacity:1;fill-rule:evenodd;stroke:none;stroke-width:0.40000001;stroke-linecap:butt;stroke-linejoin:miter;stroke-miterlimit:4;stroke-dasharray:none;stroke-opacity:1"
             d="m -8.4059162,723.45418 0,8 c -10.5529328,5.5278 -20.2926068,12.35682 -29.1042308,20.57775 -8.811624,-8.22093 -18.551298,-15.04995 -29.10423,-20.57775 l 0,-8 c 10.552932,5.5278 20.292606,12.35682 29.10423,20.57775 8.811624,-8.22093 18.551298,-15.04995 29.1042308,-20.57775 z"
             id="path32700"
             inkscape:connector-curvature="0"
             sodipodi:nodetypes="ccccccc" />
        </g>
      </g>
    </g>
  </g>
</svg>
