<?xml version="1.0" encoding="UTF-8" standalone="no"?>
<!-- Created with Inkscape (http://www.inkscape.org/) -->

<svg
   xmlns:dc="http://purl.org/dc/elements/1.1/"
   xmlns:cc="http://creativecommons.org/ns#"
   xmlns:rdf="http://www.w3.org/1999/02/22-rdf-syntax-ns#"
   xmlns:svg="http://www.w3.org/2000/svg"
   xmlns="http://www.w3.org/2000/svg"
   xmlns:sodipodi="http://sodipodi.sourceforge.net/DTD/sodipodi-0.dtd"
   xmlns:inkscape="http://www.inkscape.org/namespaces/inkscape"
   width="21.166666mm"
   height="53.995621mm"
   viewBox="0 0 74.999998 191.32306"
   id="svg9565"
   version="1.1"
   inkscape:version="0.91 r13725"
   sodipodi:docname="Canadian RCN OF-3.svg">
  <defs
     id="defs9567" />
  <sodipodi:namedview
     id="base"
     pagecolor="#ffffff"
     bordercolor="#666666"
     borderopacity="1.0"
     inkscape:pageopacity="0.0"
     inkscape:pageshadow="2"
     inkscape:zoom="2.3729496"
     inkscape:cx="37.5"
     inkscape:cy="95.661534"
     inkscape:document-units="px"
     inkscape:current-layer="layer1"
     showgrid="false"
     fit-margin-top="0"
     fit-margin-left="0"
     fit-margin-right="0"
     fit-margin-bottom="0"
     inkscape:window-width="1366"
     inkscape:window-height="656"
     inkscape:window-x="0"
     inkscape:window-y="1"
     inkscape:window-maximized="1" />
  <metadata
     id="metadata9570">
    <rdf:RDF>
      <cc:Work
         rdf:about="">
        <dc:format>image/svg+xml</dc:format>
        <dc:type
           rdf:resource="http://purl.org/dc/dcmitype/StillImage" />
        <dc:title></dc:title>
      </cc:Work>
    </rdf:RDF>
  </metadata>
  <g
     inkscape:label="Layer 1"
     inkscape:groupmode="layer"
     id="layer1"
     transform="translate(156.78571,-436.70067)">
    <g
       transform="translate(-421.08373,220.47128)"
       id="g9474">
      <path
         style="fill:#000000;fill-opacity:1;fill-rule:evenodd;stroke:#1a1a1a;stroke-width:1;stroke-linecap:butt;stroke-linejoin:miter;stroke-miterlimit:4;stroke-dasharray:none;stroke-opacity:1"
         d="m 264.79802,216.72939 0,190.32306 37.00001,0 36.99999,0 0,-190.32306 z"
         id="path22256"
         inkscape:connector-curvature="0"
         sodipodi:nodetypes="cccccc" />
      <g
         transform="translate(0,12.213522)"
         id="g9611">
        <g
           id="g16310"
           transform="translate(-224.39202,-206.68924)">
          <path
             style="display:inline;fill:#fddd10;fill-opacity:1;fill-rule:evenodd;stroke:none;stroke-width:1;stroke-linecap:butt;stroke-linejoin:miter;stroke-miterlimit:4;stroke-dasharray:none;stroke-opacity:1"
             d="m 488.75594,569.83643 0,13.14432 74.8682,0 0,-13.14432 z"
             id="path16312"
             inkscape:connector-curvature="0"
             sodipodi:nodetypes="ccccc" />
          <path
             style="color:#000000;font-style:normal;font-variant:normal;font-weight:normal;font-stretch:normal;font-size:medium;line-height:normal;font-family:sans-serif;text-indent:0;text-align:start;text-decoration:none;text-decoration-line:none;text-decoration-style:solid;text-decoration-color:#000000;letter-spacing:normal;word-spacing:normal;text-transform:none;direction:ltr;block-progression:tb;writing-mode:lr-tb;baseline-shift:baseline;text-anchor:start;white-space:normal;clip-rule:nonzero;display:inline;overflow:visible;visibility:visible;opacity:1;isolation:auto;mix-blend-mode:normal;color-interpolation:sRGB;color-interpolation-filters:linearRGB;solid-color:#000000;solid-opacity:1;fill:#dbb110;fill-opacity:1;fill-rule:evenodd;stroke:none;stroke-width:1;stroke-linecap:butt;stroke-linejoin:miter;stroke-miterlimit:4;stroke-dasharray:none;stroke-dashoffset:0;stroke-opacity:1;color-rendering:auto;image-rendering:auto;shape-rendering:auto;text-rendering:auto;enable-background:accumulate"
             d="m 488.75594,569.46485 0,0.74608 74.8682,0 0,-0.74608 -74.8682,0 z m 0,3.6386 0,0.74608 74.8682,0 0,-0.74608 z m 0,1.83459 0,0.74608 74.8682,0 0,-0.74608 -74.8682,0 z m 0,1.83459 0,0.74608 74.8682,0 0,-0.74608 -74.8682,0 z m 0,1.8346 0,0.74608 74.8682,0 0,-0.74608 -74.8682,0 z m 0,3.66337 0,0.74608 74.8682,0 0,-0.74608 -74.8682,0 z"
             id="path16314"
             inkscape:connector-curvature="0"
             sodipodi:nodetypes="ccccccccccccccccccccccccccccccccccc" />
          <path
             inkscape:connector-curvature="0"
             id="path16316"
             d="m 488.75594,571.26885 0,0.74608 74.8682,0 0,-0.74608 -74.8682,0 z m 0,9.17298 0,0.74608 74.8682,0 0,-0.74608 -74.8682,0 z"
             style="color:#000000;font-style:normal;font-variant:normal;font-weight:normal;font-stretch:normal;font-size:medium;line-height:normal;font-family:sans-serif;text-indent:0;text-align:start;text-decoration:none;text-decoration-line:none;text-decoration-style:solid;text-decoration-color:#000000;letter-spacing:normal;word-spacing:normal;text-transform:none;direction:ltr;block-progression:tb;writing-mode:lr-tb;baseline-shift:baseline;text-anchor:start;white-space:normal;clip-rule:nonzero;display:inline;overflow:visible;visibility:visible;opacity:1;isolation:auto;mix-blend-mode:normal;color-interpolation:sRGB;color-interpolation-filters:linearRGB;solid-color:#000000;solid-opacity:1;fill:#bc8810;fill-opacity:1;fill-rule:evenodd;stroke:none;stroke-width:1;stroke-linecap:butt;stroke-linejoin:miter;stroke-miterlimit:4;stroke-dasharray:none;stroke-dashoffset:0;stroke-opacity:1;color-rendering:auto;image-rendering:auto;shape-rendering:auto;text-rendering:auto;enable-background:accumulate"
             sodipodi:nodetypes="cccccccccccc" />
        </g>
        <g
           id="g25175"
           transform="translate(0,-16)">
          <g
             transform="translate(-74.689232,-234.03638)"
             id="g25177">
            <path
               style="display:inline;fill:#fddd10;fill-opacity:1;fill-rule:evenodd;stroke:none;stroke-width:1;stroke-linecap:butt;stroke-linejoin:miter;stroke-miterlimit:4;stroke-dasharray:none;stroke-opacity:1"
               d="m 339.05315,598.57313 0,7.7572 74.8682,0 0,-7.7572 z"
               id="path25179"
               inkscape:connector-curvature="0"
               sodipodi:nodetypes="ccccc" />
            <path
               inkscape:connector-curvature="0"
               id="path25181"
               transform="translate(-260.71685,407.2302)"
               d="m 599.76953,191.08984 0,0.7461 74.86914,0 0,-0.7461 -74.86914,0 z m 0,3.63672 0,0.7461 74.86914,0 0,-0.7461 -74.86914,0 z m 0,3.66406 0,0.7461 74.86914,0 0,-0.7461 -74.86914,0 z"
               style="color:#000000;font-style:normal;font-variant:normal;font-weight:normal;font-stretch:normal;font-size:medium;line-height:normal;font-family:sans-serif;text-indent:0;text-align:start;text-decoration:none;text-decoration-line:none;text-decoration-style:solid;text-decoration-color:#000000;letter-spacing:normal;word-spacing:normal;text-transform:none;direction:ltr;block-progression:tb;writing-mode:lr-tb;baseline-shift:baseline;text-anchor:start;white-space:normal;clip-rule:nonzero;display:inline;overflow:visible;visibility:visible;opacity:1;isolation:auto;mix-blend-mode:normal;color-interpolation:sRGB;color-interpolation-filters:linearRGB;solid-color:#000000;solid-opacity:1;fill:#dbb110;fill-opacity:1;fill-rule:evenodd;stroke:none;stroke-width:1;stroke-linecap:butt;stroke-linejoin:miter;stroke-miterlimit:4;stroke-dasharray:none;stroke-dashoffset:0;stroke-opacity:1;color-rendering:auto;image-rendering:auto;shape-rendering:auto;text-rendering:auto;enable-background:accumulate" />
            <path
               inkscape:connector-curvature="0"
               id="path25183"
               transform="translate(-260.71685,407.2302)"
               d="m 599.76953,192.89258 0,0.74609 74.86914,0 0,-0.74609 -74.86914,0 z m 0,3.66797 0,0.74609 74.86914,0 0,-0.74609 -74.86914,0 z"
               style="color:#000000;font-style:normal;font-variant:normal;font-weight:normal;font-stretch:normal;font-size:medium;line-height:normal;font-family:sans-serif;text-indent:0;text-align:start;text-decoration:none;text-decoration-line:none;text-decoration-style:solid;text-decoration-color:#000000;letter-spacing:normal;word-spacing:normal;text-transform:none;direction:ltr;block-progression:tb;writing-mode:lr-tb;baseline-shift:baseline;text-anchor:start;white-space:normal;clip-rule:nonzero;display:inline;overflow:visible;visibility:visible;opacity:1;isolation:auto;mix-blend-mode:normal;color-interpolation:sRGB;color-interpolation-filters:linearRGB;solid-color:#000000;solid-opacity:1;fill:#bc8810;fill-opacity:1;fill-rule:evenodd;stroke:none;stroke-width:1;stroke-linecap:butt;stroke-linejoin:miter;stroke-miterlimit:4;stroke-dasharray:none;stroke-dashoffset:0;stroke-opacity:1;color-rendering:auto;image-rendering:auto;shape-rendering:auto;text-rendering:auto;enable-background:accumulate" />
          </g>
          <g
             id="g25185"
             transform="matrix(0.74607885,0,0,0.74607885,37.723969,-271.76589)">
            <path
               sodipodi:nodetypes="ccccc"
               inkscape:connector-curvature="0"
               id="path25187"
               transform="translate(-375.13317,275.35413)"
               d="m 692.56055,551.09375 -0.29102,17.61787 86.97273,0 0,-17.61787 z"
               style="fill:#fddd10;fill-opacity:1;fill-rule:evenodd;stroke:none;stroke-width:1;stroke-linecap:butt;stroke-linejoin:miter;stroke-miterlimit:4;stroke-dasharray:none;stroke-opacity:1" />
            <path
               sodipodi:nodetypes="cccccccccccccccccccccccccccccccccccc"
               inkscape:connector-curvature="0"
               id="path25189"
               transform="translate(-375.13317,275.35413)"
               d="m 729.85352,550.5957 0,1 49.38874,0 0,-1 -49.38877,0 z m 0,4.87696 0,1 49.38874,0 0,-1 -49.38872,0 z m 0,2.45898 0,1 49.38874,0 0,-1 -49.38877,0 z m 0,2.45898 0,1 49.38874,0 0,-1 -49.38877,0 z m 0,2.45899 0,1 49.38874,0 0,-1 -49.38877,0 z m 0,4.91016 0,1 49.38874,0 0,-1 -49.38877,0 z"
               style="color:#000000;font-style:normal;font-variant:normal;font-weight:normal;font-stretch:normal;font-size:medium;line-height:normal;font-family:sans-serif;text-indent:0;text-align:start;text-decoration:none;text-decoration-line:none;text-decoration-style:solid;text-decoration-color:#000000;letter-spacing:normal;word-spacing:normal;text-transform:none;direction:ltr;block-progression:tb;writing-mode:lr-tb;baseline-shift:baseline;text-anchor:start;white-space:normal;clip-rule:nonzero;display:inline;overflow:visible;visibility:visible;opacity:1;isolation:auto;mix-blend-mode:normal;color-interpolation:sRGB;color-interpolation-filters:linearRGB;solid-color:#000000;solid-opacity:1;fill:#dbb110;fill-opacity:1;fill-rule:evenodd;stroke:none;stroke-width:1;stroke-linecap:butt;stroke-linejoin:miter;stroke-miterlimit:4;stroke-dasharray:none;stroke-dashoffset:0;stroke-opacity:1;color-rendering:auto;image-rendering:auto;shape-rendering:auto;text-rendering:auto;enable-background:accumulate" />
            <path
               inkscape:connector-curvature="0"
               id="path25191"
               transform="translate(-375.13317,275.35413)"
               d="m 729.85352,553.01367 0,1 49.38874,0 0,-1 -49.38877,0 z m 0,12.29492 0,1 49.38874,0 0,-1 -49.38877,0 z"
               style="color:#000000;font-style:normal;font-variant:normal;font-weight:normal;font-stretch:normal;font-size:medium;line-height:normal;font-family:sans-serif;text-indent:0;text-align:start;text-decoration:none;text-decoration-line:none;text-decoration-style:solid;text-decoration-color:#000000;letter-spacing:normal;word-spacing:normal;text-transform:none;direction:ltr;block-progression:tb;writing-mode:lr-tb;baseline-shift:baseline;text-anchor:start;white-space:normal;clip-rule:nonzero;display:inline;overflow:visible;visibility:visible;opacity:1;isolation:auto;mix-blend-mode:normal;color-interpolation:sRGB;color-interpolation-filters:linearRGB;solid-color:#000000;solid-opacity:1;fill:#bc8810;fill-opacity:1;fill-rule:evenodd;stroke:none;stroke-width:1;stroke-linecap:butt;stroke-linejoin:miter;stroke-miterlimit:4;stroke-dasharray:none;stroke-dashoffset:0;stroke-opacity:1;color-rendering:auto;image-rendering:auto;shape-rendering:auto;text-rendering:auto;enable-background:accumulate"
               sodipodi:nodetypes="cccccccccccc" />
            <path
               id="path25193"
               transform="translate(0,352.36216)"
               d="m 353.98047,432.24219 c -16.29691,0 -29.50781,13.2109 -29.50781,29.50781 0,4.34455 0.93895,8.46964 2.43945,12.25977 l -22.90536,0.0762 0,17.16406 50.07528,0.004 c 16.19459,0.004 29.40625,-13.207 29.40625,-29.50391 1e-5,-16.2969 -13.2109,-29.50781 -29.50781,-29.50781 z m 0,17.17187 c 6.81296,0 12.33594,5.52298 12.33594,12.33594 0,6.81296 -5.52298,12.33594 -12.33594,12.33594 -1.70323,0 -3.32492,-0.34452 -4.80078,-0.96875 -1.47585,-0.62423 -2.80569,-1.52834 -3.92188,-2.64453 -2.23237,-2.23236 -3.61328,-5.31618 -3.61328,-8.72266 0,-6.81296 5.52298,-12.33594 12.33594,-12.33594 z"
               style="fill:#fddd10;fill-opacity:1;stroke:none;stroke-width:0.98366606;stroke-linejoin:round;stroke-miterlimit:4;stroke-dasharray:none;stroke-opacity:1"
               inkscape:connector-curvature="0"
               sodipodi:nodetypes="csccccsccsssssss" />
            <g
               id="g25195">
              <g
                 id="g25197">
                <path
                   inkscape:connector-curvature="0"
                   id="path25199"
                   transform="translate(-375.13317,275.35413)"
                   d="m 729.11328,511.20898 c -15.20906,0 -27.54883,12.34173 -27.54883,27.55079 0,4.5174 1.08891,8.78349 3.01758,12.54687 l 0.88867,-0.45703 c -1.85843,-3.62632 -2.90625,-7.73296 -2.90625,-12.08984 0,-14.66862 11.88021,-26.55079 26.54883,-26.55079 14.66862,0 26.54883,11.88217 26.54883,26.55079 0,14.66861 -11.88285,26.54882 -26.44727,26.54882 l -50.24716,0 -0.0137,1 50.26083,0 c 15.10859,0 27.44727,-12.33977 27.44727,-27.54882 0,-15.20906 -12.33977,-27.55079 -27.54883,-27.55079 z m 0,12.29493 c -8.41868,0 -15.25391,6.83718 -15.2539,15.25586 0,4.20934 1.70691,8.02528 4.46679,10.78515 0.73408,0.73407 1.54319,1.39391 2.41406,1.9668 l 0.55079,-0.83594 c -0.81386,-0.53539 -1.57158,-1.15165 -2.25782,-1.83789 -2.58004,-2.58004 -4.17382,-6.139 -4.17382,-10.07812 0,-7.87824 6.37566,-14.25586 14.2539,-14.25586 7.87824,0 14.25391,6.37762 14.25391,14.25586 0,7.87823 -6.37989,14.25389 -14.15235,14.2539 l -50.08309,0 -0.0137,1 50.09677,0 c 8.31978,0 15.15235,-6.83523 15.15235,-15.2539 0,-8.41868 -6.83523,-15.25586 -15.25391,-15.25586 z"
                   style="color:#000000;font-style:normal;font-variant:normal;font-weight:normal;font-stretch:normal;font-size:medium;line-height:normal;font-family:sans-serif;text-indent:0;text-align:start;text-decoration:none;text-decoration-line:none;text-decoration-style:solid;text-decoration-color:#000000;letter-spacing:normal;word-spacing:normal;text-transform:none;direction:ltr;block-progression:tb;writing-mode:lr-tb;baseline-shift:baseline;text-anchor:start;white-space:normal;clip-rule:nonzero;display:inline;overflow:visible;visibility:visible;opacity:1;isolation:auto;mix-blend-mode:normal;color-interpolation:sRGB;color-interpolation-filters:linearRGB;solid-color:#000000;solid-opacity:1;fill:#bc8810;fill-opacity:1;fill-rule:evenodd;stroke:none;stroke-width:1;stroke-linecap:butt;stroke-linejoin:miter;stroke-miterlimit:4;stroke-dasharray:none;stroke-dashoffset:0;stroke-opacity:1;color-rendering:auto;image-rendering:auto;shape-rendering:auto;text-rendering:auto;enable-background:accumulate"
                   sodipodi:nodetypes="csccssssccsscccssccsssssccsscc" />
                <path
                   inkscape:connector-curvature="0"
                   id="path25201"
                   transform="translate(-375.13317,275.35413)"
                   d="m 729.11328,508.75 c -16.56713,0 -30.00781,13.44264 -30.00781,30.00977 0,4.21103 0.91928,8.19755 2.48633,11.83593 l -22.42685,0 -0.0137,1 49.962,0 0.20508,0 0,-0.0215 c 6.8157,-0.10978 12.31378,-5.5375 12.58008,-12.31445 l 0.0508,0 0,-0.5 c 0,-7.08318 -5.75276,-12.83594 -12.83594,-12.83594 -7.08318,0 -12.83594,5.75276 -12.83594,12.83594 0,3.54159 1.43748,6.7539 3.75977,9.07617 1.16114,1.16115 2.54403,2.10031 4.08008,2.75 0.01,0.004 0.0213,0.006 0.0312,0.01 l -6.87305,0 0.0195,-0.0195 c -3.02504,-3.02503 -4.89453,-7.19825 -4.89453,-11.8164 0,-9.23631 7.47658,-16.71485 16.71289,-16.71485 9.23631,0 16.71289,7.47854 16.71289,16.71485 0,9.23631 -7.48029,16.71289 -16.61133,16.71289 l -50.1163,0 -0.0117,1 50.12802,0 c 9.67736,0 17.61133,-7.93614 17.61133,-17.71289 0,-9.77675 -7.93614,-17.71485 -17.71289,-17.71485 -9.77675,0 -17.71289,7.9381 -17.71289,17.71485 0,4.56798 1.77897,8.69391 4.62109,11.83593 l -1.9746,0 c -2.56568,-3.26105 -4.10547,-7.36261 -4.10547,-11.83593 0,-10.59439 8.57748,-19.17383 19.17187,-19.17383 10.59439,0 19.17188,8.57944 19.17188,19.17383 0,10.59439 -8.58083,19.17187 -19.07032,19.17187 l -50.14755,0 -0.0137,1 50.16122,0 c 11.03507,0 20.07032,-9.03704 20.07032,-20.17187 0,-11.13483 -9.03705,-20.17383 -20.17188,-20.17383 -11.13483,0 -20.17187,9.039 -20.17187,20.17383 0,4.4341 1.47529,8.50555 3.90234,11.83593 l -1.77539,0 c -2.23866,-3.40648 -3.58594,-7.45294 -3.58594,-11.83593 0,-11.95247 9.67839,-21.63282 21.63086,-21.63282 11.95246,0 21.63086,9.68036 21.63086,21.63282 0,11.95246 -9.68145,21.63085 -21.5293,21.63085 l -50.18075,0 -0.0137,1 50.19442,0 c 12.39285,0 22.5293,-10.13795 22.5293,-22.63085 0,-12.4929 -10.13796,-22.63282 -22.63086,-22.63282 -12.49291,0 -22.63086,10.13991 -22.63086,22.63282 0,4.36444 1.34423,8.37799 3.48633,11.83593 l -1.8125,0 c -1.98042,-3.49867 -3.13281,-7.52659 -3.13281,-11.83593 0,-13.31054 10.7793,-24.0918 24.08984,-24.0918 13.31054,0 24.08984,10.78126 24.08984,24.0918 0,13.31054 -10.78212,24.08985 -23.98828,24.08984 l -50.21395,0 -0.0137,1 50.22763,0 c 13.7507,0 24.98828,-11.23886 24.98828,-25.08984 0,-13.85098 -11.23886,-25.0918 -25.08984,-25.0918 -13.85098,0 -25.08983,11.24082 -25.08984,25.0918 0,4.29542 1.15465,8.2998 3.05859,11.83593 l -4.44336,0 c -1.61924,-3.61594 -2.5332,-7.61563 -2.5332,-11.83593 0,-16.02669 12.98112,-29.00977 29.00781,-29.00977 16.02669,0 29.00782,12.98309 29.00781,29.00977 0,16.02669 -12.98365,29.00792 -28.90625,29.0039 l -50.27841,-0.004 -0.0137,1 50.29208,0.004 c 16.46659,0.004 29.90625,-13.43677 29.90625,-30.0039 C 759.1211,522.19265 745.68041,508.75 729.11328,508.75 Z m 0,18.17383 c 6.54274,0 11.83594,5.2932 11.83594,11.83594 0,6.54274 -5.2932,11.83593 -11.83594,11.83593 -1.63568,0 -3.19175,-0.33287 -4.60742,-0.93164 -1.41566,-0.59877 -2.69049,-1.46392 -3.76172,-2.53515 -2.14245,-2.14244 -3.4668,-5.09777 -3.4668,-8.36914 0,-6.54274 5.2932,-11.83594 11.83594,-11.83594 z"
                   style="color:#000000;font-style:normal;font-variant:normal;font-weight:normal;font-stretch:normal;font-size:medium;line-height:normal;font-family:sans-serif;text-indent:0;text-align:start;text-decoration:none;text-decoration-line:none;text-decoration-style:solid;text-decoration-color:#000000;letter-spacing:normal;word-spacing:normal;text-transform:none;direction:ltr;block-progression:tb;writing-mode:lr-tb;baseline-shift:baseline;text-anchor:start;white-space:normal;clip-rule:nonzero;display:inline;overflow:visible;visibility:visible;opacity:1;isolation:auto;mix-blend-mode:normal;color-interpolation:sRGB;color-interpolation-filters:linearRGB;solid-color:#000000;solid-opacity:1;fill:#dbb110;fill-opacity:1;fill-rule:evenodd;stroke:none;stroke-width:1;stroke-linecap:butt;stroke-linejoin:miter;stroke-miterlimit:4;stroke-dasharray:none;stroke-dashoffset:0;stroke-opacity:1;color-rendering:auto;image-rendering:auto;shape-rendering:auto;text-rendering:auto;enable-background:accumulate"
                   sodipodi:nodetypes="ssccccccccssssccccssssccssssccssssccssssccssssccssssccssssccssssccssscccccssssssss" />
              </g>
            </g>
          </g>
        </g>
      </g>
    </g>
  </g>
</svg>
